<svg width="17" height="15" viewBox="0 0 17 15" fill="none" xmlns="http://www.w3.org/2000/svg">
<path fill-rule="evenodd" clip-rule="evenodd" d="M15.4535 1.46511C14.1279 0.139529 11.9651 0.139529 10.6395 1.46511L3.48834 8.65116C2.68601 9.45348 2.68601 10.7442 3.48834 11.5465C4.29066 12.3488 5.58136 12.3488 6.38369 11.5465L10.8139 7.08139C11.093 6.80232 11.093 6.38371 10.8139 6.10464C10.5348 5.82557 10.1162 5.82557 9.83718 6.10464L5.37206 10.5349C5.12787 10.7791 4.70927 10.7791 4.46508 10.5349C4.2209 10.2907 4.2209 9.87209 4.46508 9.6279L11.6162 2.44185C12.3837 1.67441 13.6744 1.67441 14.4418 2.44185C15.2093 3.2093 15.2093 4.49999 14.4418 5.26744L7.29066 12.4535C5.96508 13.7791 3.83718 13.7791 2.54648 12.4535C1.2209 11.1279 1.2209 8.99999 2.54648 7.7093L8.96508 1.29069C9.24415 1.01162 9.24415 0.593017 8.96508 0.313947C8.68601 0.0348773 8.26741 0.0348773 7.98834 0.313947L1.56973 6.69767C-0.279104 8.5465 -0.279104 11.5814 1.56973 13.4302C3.41857 15.2791 6.45345 15.2791 8.30229 13.4302L15.4535 6.27906C16.779 4.95348 16.779 2.79069 15.4535 1.46511Z" fill="#8E8E93"/>
</svg>
