<svg width="13" height="15" viewBox="0 0 13 15" fill="none" xmlns="http://www.w3.org/2000/svg">
<path fill-rule="evenodd" clip-rule="evenodd" d="M7.67662 1.04639H11.3441C11.8601 1.04639 12.2785 1.46355 12.2788 1.97769V3.50846H0.135498V1.97769C0.135498 1.46355 0.554205 1.04639 1.06964 1.04639H4.73946V0.515704C4.73946 0.515704 4.72343 0.0504456 5.18998 0.0504456H7.193C7.66007 0.0504456 7.67662 0.515704 7.67662 0.515704V1.04639ZM2.00326 14.9496C1.48757 14.9496 1.06938 14.5329 1.06938 14.0188V4.43898H11.3462V14.0188C11.3462 14.5332 10.9283 14.9496 10.4105 14.9496H2.00326ZM9.9305 5.362H8.48248V13.109C8.48248 13.5088 8.80705 13.8321 9.20765 13.8321C9.60567 13.8321 9.9305 13.5088 9.9305 13.109V5.362ZM6.93308 5.362H5.48377V13.109C5.48377 13.5088 5.80808 13.8321 6.20843 13.8321C6.60877 13.8321 6.93308 13.5088 6.93308 13.109V5.362ZM3.9111 5.362H2.46412V13.109C2.46412 13.5088 2.78843 13.8321 3.18748 13.8321C3.58653 13.8321 3.9111 13.5088 3.9111 13.109V5.362Z" fill="#8E8E93"/>
</svg>
