<svg width="15" height="15" viewBox="0 0 15 15" fill="none" xmlns="http://www.w3.org/2000/svg">
<path fill-rule="evenodd" clip-rule="evenodd" d="M13.5 1.5V13.5H1.5V1.5H13.5ZM13.5 0H1.5C0.675 0 0 0.675 0 1.5V13.5C0 14.325 0.675 15 1.5 15H13.5C14.325 15 15 14.325 15 13.5V1.5C15 0.675 14.325 0 13.5 0Z" fill="#4C4F59"/>
<path fill-rule="evenodd" clip-rule="evenodd" d="M9.75 10.5C9.75 11.775 8.775 12.75 7.5 12.75C6.225 12.75 5.25 11.775 5.25 10.5H0V13.5C0 14.325 0.675 15 1.5 15H13.5C14.325 15 15 14.325 15 13.5V10.5H9.75Z" fill="#4C4F59"/>
</svg>
