<svg width="15" height="15" viewBox="0 0 15 15" fill="none" xmlns="http://www.w3.org/2000/svg">
<path fill-rule="evenodd" clip-rule="evenodd" d="M4.51807 0.0654526C2.02444 0.0654526 0 2.08989 0 4.58352V10.3667C0 12.8603 2.02444 14.8847 4.51807 14.8847H10.3012C12.7948 14.8847 14.8193 12.8603 14.8193 10.3667V4.58352C14.8193 2.08989 12.7948 0.0654526 10.3012 0.0654526H4.51807V0.0654526ZM4.51807 1.14979H10.3012C12.2129 1.14979 13.7349 2.67186 13.7349 4.58352V10.3667C13.7349 12.2783 12.2129 13.8004 10.3012 13.8004H4.51807C2.6064 13.8004 1.08434 12.2783 1.08434 10.3667V4.58352C1.08434 2.67186 2.6064 1.14979 4.51807 1.14979ZM3.61446 6.21003C2.9158 6.21003 2.3494 6.77642 2.3494 7.47509C2.3494 8.17377 2.9158 8.74016 3.61446 8.74016C4.31315 8.74016 4.87952 8.17377 4.87952 7.47509C4.87952 6.77642 4.31315 6.21003 3.61446 6.21003ZM7.40964 6.21003C6.71098 6.21003 6.14458 6.77642 6.14458 7.47509C6.14458 8.17377 6.71098 8.74016 7.40964 8.74016C8.10833 8.74016 8.6747 8.17377 8.6747 7.47509C8.6747 6.77642 8.10833 6.21003 7.40964 6.21003ZM11.2048 6.21003C10.5061 6.21003 9.93976 6.77642 9.93976 7.47509C9.93976 8.17377 10.5061 8.74016 11.2048 8.74016C11.9035 8.74016 12.4699 8.17377 12.4699 7.47509C12.4699 6.77642 11.9035 6.21003 11.2048 6.21003Z" fill="#8E8E93"/>
</svg>
