<svg width="11" height="7" viewBox="0 0 11 7" fill="none" xmlns="http://www.w3.org/2000/svg">
<path id="down copy" fill-rule="evenodd" clip-rule="evenodd" d="M9.88907 1.15647C10.1001 0.945449 10.4422 0.945449 10.6533 1.15647C10.8643 1.3675 10.8643 1.70963 10.6533 1.92066L5.97356 6.60035C5.94917 6.68573 5.90335 6.76629 5.83611 6.83353C5.71841 6.95123 5.55993 7.00328 5.40615 6.98968C5.25238 7.00328 5.0939 6.95122 4.9762 6.83353C4.90896 6.76629 4.86314 6.68573 4.83875 6.60035L0.159058 1.92066C-0.0519657 1.70963 -0.0519657 1.3675 0.159058 1.15647C0.37008 0.94545 0.712216 0.94545 0.92324 1.15647L5.40615 5.63939L9.88907 1.15647Z" fill="#484C51"/>
</svg>
