<svg width="81" height="16" viewBox="0 0 81 16" fill="none" xmlns="http://www.w3.org/2000/svg">
<g clip-path="url(#clip0)">
<path d="M26.4316 9.42285C26.5015 11.1113 27.8853 12.1523 29.9927 12.1523C32.208 12.1523 33.6045 11.0605 33.6045 9.32129C33.6045 7.95654 32.8174 7.18848 30.9575 6.76318L29.9038 6.52197C28.7803 6.25537 28.3169 5.8999 28.3169 5.29053C28.3169 4.52881 29.0151 4.021 30.0498 4.021C31.0972 4.021 31.8145 4.53516 31.8906 5.39209H33.4521C33.4141 3.77979 32.0811 2.68799 30.0625 2.68799C28.0693 2.68799 26.6538 3.78613 26.6538 5.41113C26.6538 6.71875 27.4536 7.53125 29.1421 7.91846L30.3291 8.19775C31.4844 8.4707 31.9541 8.85156 31.9541 9.51172C31.9541 10.2734 31.186 10.8193 30.0815 10.8193C28.9644 10.8193 28.1201 10.2671 28.0186 9.42285H26.4316ZM37.6797 6.19824C38.6191 6.19824 39.2666 6.8584 39.2983 7.86133H36.0103C36.0801 6.87109 36.7529 6.19824 37.6797 6.19824ZM39.3047 9.93701C39.1206 10.5083 38.5303 10.8701 37.7686 10.8701C36.7085 10.8701 35.9976 10.1274 35.9976 9.01025V8.91504H40.8535V8.39453C40.8535 6.29346 39.6221 4.9668 37.6797 4.9668C35.6929 4.9668 34.417 6.37598 34.417 8.55957C34.417 10.7432 35.6865 12.1016 37.7368 12.1016C39.3555 12.1016 40.5869 11.2192 40.79 9.93701H39.3047ZM41.9199 12H43.5005V8.02002C43.5005 7.00439 44.0845 6.31885 45.0557 6.31885C46.0078 6.31885 46.4775 6.87744 46.4775 7.86768V12H48.0581V7.55664C48.0581 5.95068 47.1821 4.97949 45.646 4.97949C44.5796 4.97949 43.8813 5.42383 43.4688 6.26807H43.437V5.06201H41.9199V12ZM49.8164 3.51318V5.06201H48.8706V6.28711H49.8164V10.1592C49.8164 11.4985 50.4004 12.0317 51.873 12.0317C52.2095 12.0317 52.5332 12.0063 52.7046 11.9683V10.7559C52.603 10.7686 52.3872 10.7876 52.2349 10.7876C51.6636 10.7876 51.397 10.5146 51.397 9.94336V6.28711H52.7109V5.06201H51.397V3.51318H49.8164ZM66.3203 2.84033H64.4287L61.623 9.75293H61.5723L58.7666 2.84033H56.8687V12H58.3477V5.5H58.3921L61.0391 11.9238H62.1562L64.8032 5.5H64.8477V12H66.3203V2.84033ZM70.313 10.8638C69.5767 10.8638 69.0942 10.5083 69.0942 9.94971C69.0942 9.38477 69.5513 9.05469 70.4146 8.99756L72.0015 8.896V9.42285C72.0015 10.2671 71.2715 10.8638 70.313 10.8638ZM69.8496 12.0762C70.77 12.0762 71.627 11.6255 72.0078 10.8828H72.0459V12H73.563V7.24561C73.563 5.86816 72.4395 4.9668 70.7065 4.9668C69.0752 4.9668 67.8945 5.87451 67.8564 7.14404H69.3164C69.4243 6.58545 69.9385 6.21094 70.6558 6.21094C71.5063 6.21094 72.0015 6.61084 72.0015 7.34717V7.85498L70.1987 7.96289C68.4531 8.0708 67.5073 8.77539 67.5073 10.0132C67.5073 11.2446 68.4849 12.0762 69.8496 12.0762ZM74.9341 12H76.5146V5.06201H74.9341V12ZM75.7212 4.17969C76.2163 4.17969 76.6099 3.79883 76.6099 3.31006C76.6099 2.81494 76.2163 2.44043 75.7212 2.44043C75.2324 2.44043 74.8325 2.81494 74.8325 3.31006C74.8325 3.79883 75.2324 4.17969 75.7212 4.17969ZM77.9619 12H79.5425V2.41504H77.9619V12Z" fill="#8E8E93"/>
<g clip-path="url(#clip1)">
<path fill-rule="evenodd" clip-rule="evenodd" d="M14.8143 2.09963L0.591899 7.60461C-0.20691 7.91386 -0.195719 8.38867 0.61659 8.66009L4.19445 9.85484L5.58423 14.1914C5.7505 14.7385 6.21678 14.8553 6.62054 14.4509L8.52617 12.5419C8.53434 12.5337 8.5418 12.5257 8.54962 12.5177L12.0395 15.1564C12.7231 15.6733 13.4233 15.4085 13.5956 14.5681L15.9535 3.06541C16.1258 2.22503 15.6131 1.79055 14.8143 2.09963ZM12.5039 5.17709L6.58572 10.7277L6.58554 10.7279L6.58501 10.7284C6.4811 10.8263 6.39548 11.0144 6.38322 11.1567L6.22566 12.9794C6.14608 13.8862 6.00344 13.5705 5.82919 13.0259L4.69679 9.5383L12.1147 4.78719C13.262 4.07222 13.262 4.4838 12.5039 5.17709Z" fill="#8E8E93"/>
</g>
</g>
<defs>
<clipPath id="clip0">
<rect width="81" height="16" fill="white"/>
</clipPath>
<clipPath id="clip1">
<rect width="16.2" height="13.5" fill="white" transform="translate(0 2)"/>
</clipPath>
</defs>
</svg>
