<svg width="26" height="30" viewBox="0 0 26 30" fill="none" xmlns="http://www.w3.org/2000/svg">
<mask id="path-1-inside-1" fill="white">
<path fill-rule="evenodd" clip-rule="evenodd" d="M0 4C0 1.79086 1.79086 0 4 0H17.2955C17.2955 4.70697 21.1112 8.52273 25.8182 8.52273L25.8182 26C25.8182 28.2091 24.0273 30 21.8182 30H4C1.79086 30 0 28.2091 0 26V4Z"/>
</mask>
<path fill-rule="evenodd" clip-rule="evenodd" d="M0 4C0 1.79086 1.79086 0 4 0H17.2955C17.2955 4.70697 21.1112 8.52273 25.8182 8.52273L25.8182 26C25.8182 28.2091 24.0273 30 21.8182 30H4C1.79086 30 0 28.2091 0 26V4Z" fill="#FF6650"/>
<path d="M17.2955 0H18.2955V-1H17.2955V0ZM25.8182 8.52273L26.8182 8.52273L26.8182 7.52273H25.8182V8.52273ZM25.8182 26L26.8182 26L26.8182 26L25.8182 26ZM4 -1C1.23858 -1 -1 1.23858 -1 4H1C1 2.34315 2.34315 1 4 1V-1ZM17.2955 -1H4V1H17.2955V-1ZM25.8182 7.52273C21.6635 7.52273 18.2955 4.15469 18.2955 0H16.2955C16.2955 5.25925 20.5589 9.52273 25.8182 9.52273V7.52273ZM26.8182 26L26.8182 8.52273L24.8182 8.52273L24.8182 26L26.8182 26ZM21.8182 31C24.5796 31 26.8182 28.7614 26.8182 26H24.8182C24.8182 27.6569 23.475 29 21.8182 29V31ZM4 31H21.8182V29H4V31ZM-1 26C-1 28.7614 1.23858 31 4 31V29C2.34315 29 1 27.6569 1 26H-1ZM-1 4V26H1V4H-1Z" fill="#FF6650" mask="url(#path-1-inside-1)"/>
<path opacity="0.100338" fill-rule="evenodd" clip-rule="evenodd" d="M21.0018 8.52272H25.8182V14.4886L21.0018 8.52272Z" fill="black"/>
<path fill-rule="evenodd" clip-rule="evenodd" d="M17.2954 0L21.8977 4.60227L25.8181 8.52273V8.52273C21.1112 8.52273 17.2954 4.70697 17.2954 0V0Z" fill="#EC9D95"/>
</svg>
